<svg width="62" height="65" viewBox="0 0 62 65" fill="none" xmlns="http://www.w3.org/2000/svg">
<g clip-path="url(#clip0_9_203)">
<path fill-rule="evenodd" clip-rule="evenodd" d="M62 40.885C62 39.715 61.38 38.6425 60.4011 37.9925L35.8947 22.75V4.875C35.8947 2.1775 33.7084 0 31 0C28.2916 0 26.1053 2.1775 26.1053 4.875V22.75L1.59895 37.9925C0.62 38.61 0 39.715 0 40.885C0 43.16 2.21895 44.8175 4.43789 44.135L26.1053 37.375V55.25L20.2316 59.6375C19.8074 59.93 19.5789 60.4175 19.5789 60.9375V62.855C19.5789 63.9275 20.6232 64.7075 21.6674 64.415L31 61.75L40.3326 64.415C41.3768 64.7075 42.4211 63.9275 42.4211 62.855V60.9375C42.4211 60.4175 42.1926 59.93 41.7684 59.6375L35.8947 55.25V37.375L57.5621 44.135C59.781 44.8175 62 43.16 62 40.885Z" fill="white"/>
</g>
<defs>
<clipPath id="clip0_9_203">
<rect width="62" height="65" fill="white"/>
</clipPath>
</defs>
</svg>
