<svg width="69" height="83" viewBox="0 0 69 83" fill="none" xmlns="http://www.w3.org/2000/svg">
<g filter="url(#filter0_d_8_96)">
<path d="M31.4222 66.7731L29.5273 67.6637L21.9375 71.25L20.8906 66.5L28.0303 60.895V60.8831L29.81 59.4937H29.8205L31.4222 66.7731Z" fill="#3D9AE2"/>
<path d="M48.1094 66.5L47.0625 71.25L39.4727 67.6637L37.5778 66.7731L39.1795 59.4937H39.19L40.9697 60.8831L48.1094 66.5Z" fill="#3D9AE2"/>
<path d="M39.7344 9.5V55.5394C39.7351 56.5084 39.6296 57.4737 39.4203 58.4131L39.1795 59.4938L37.5778 66.7731L36.5309 71.535C36.4175 72.0486 36.1561 72.5044 35.7881 72.8301C35.4201 73.1557 34.9667 73.3326 34.5 73.3326C34.0333 73.3326 33.5799 73.1557 33.2119 72.8301C32.8441 72.5044 32.5825 72.0486 32.4691 71.535L31.4222 66.7731L29.8205 59.4938L29.5797 58.4131C29.3704 57.4737 29.2649 56.5084 29.2656 55.5394V9.5C29.2656 7.92528 29.8171 6.41505 30.7988 5.30156C31.7804 4.18805 33.1117 3.5625 34.5 3.5625C35.8883 3.5625 37.2197 4.18805 38.2012 5.30156C39.1829 6.41505 39.7344 7.92528 39.7344 9.5Z" fill="#E0E0E2"/>
<path d="M64.8594 42.75V47.5L41.8281 42.0612L39.7344 41.5625V28.5L64.8594 42.75Z" fill="#3D9AE2"/>
<path d="M29.2656 28.5V41.5625L27.1719 42.0612L4.14062 47.5V42.75L29.2656 28.5Z" fill="#3D9AE2"/>
<path d="M39.19 59.4937L40.9697 60.8831L39.6716 66.7731L39.4727 67.6637L37.5778 66.7731L39.1795 59.4937H39.19Z" fill="#1E81CE"/>
<path d="M41.8281 29.6875V42.0612L39.7344 41.5625V28.5L41.8281 29.6875Z" fill="#1E81CE"/>
<path d="M29.2656 41.5625L27.1719 42.0612V29.6875L29.2656 28.5V41.5625Z" fill="#1E81CE"/>
<path d="M31.4222 66.7731L29.5274 67.6637L29.3285 66.7731L28.0303 60.895V60.8831L29.81 59.4937H29.8205L31.4222 66.7731Z" fill="#1E81CE"/>
<path d="M33.1391 11.6244L31.6347 9.97497C32.3868 9.07114 33.3928 8.49256 34.4801 8.33859C35.5915 8.4679 36.6225 9.05422 37.3789 9.98684L35.8484 11.6066C35.4915 11.168 35.03 10.8565 34.5199 10.71C33.9893 10.8511 33.5083 11.1697 33.1391 11.6244Z" fill="#78B9EB"/>
<path d="M35.5469 57H33.4531V74.5275H35.5469V57Z" fill="#1E81CE"/>
</g>
<defs>
<filter id="filter0_d_8_96" x="-3" y="0" width="75" height="84" filterUnits="userSpaceOnUse" color-interpolation-filters="sRGB">
<feFlood flood-opacity="0" result="BackgroundImageFix"/>
<feColorMatrix in="SourceAlpha" type="matrix" values="0 0 0 0 0 0 0 0 0 0 0 0 0 0 0 0 0 0 127 0" result="hardAlpha"/>
<feOffset dy="4"/>
<feGaussianBlur stdDeviation="2"/>
<feComposite in2="hardAlpha" operator="out"/>
<feColorMatrix type="matrix" values="0 0 0 0 0 0 0 0 0 0 0 0 0 0 0 0 0 0 0.25 0"/>
<feBlend mode="normal" in2="BackgroundImageFix" result="effect1_dropShadow_8_96"/>
<feBlend mode="normal" in="SourceGraphic" in2="effect1_dropShadow_8_96" result="shape"/>
</filter>
</defs>
</svg>
