<svg width="686" height="572" viewBox="0 0 686 572" fill="none" xmlns="http://www.w3.org/2000/svg">
<g clip-path="url(#clip0_7_49)">
<path d="M83.2847 259.724L75.2456 243.547L42.875 178.75L85.75 169.812L136.342 230.766H136.45L148.991 245.96V246.049L83.2847 259.724Z" fill="#3D9AE2"/>
<path d="M85.75 402.188L42.875 393.25L75.2456 328.453L83.2847 312.276L148.991 325.951V326.04L136.45 341.234L85.75 402.188Z" fill="#3D9AE2"/>
<path d="M600.25 330.687L184.684 330.687C175.938 330.694 167.224 329.793 158.745 328.006L148.991 325.951L83.2846 312.276L40.3024 303.339C35.6666 302.37 31.5527 300.138 28.6126 296.997C25.6735 293.855 24.0764 289.984 24.0764 286C24.0764 282.016 25.6735 278.145 28.6126 275.003C31.5527 271.863 35.6666 269.63 40.3024 268.661L83.2846 259.724L148.991 246.049L158.745 243.994C167.224 242.207 175.938 241.306 184.684 241.312L600.25 241.312C614.464 241.312 628.096 246.021 638.146 254.401C648.197 262.782 653.844 274.148 653.844 286C653.844 297.852 648.197 309.219 638.146 317.599C628.096 325.979 614.464 330.687 600.25 330.687Z" fill="#E0E0E2"/>
<path d="M300.125 545.188H257.25L306.342 348.562L310.844 330.688H428.75L300.125 545.188Z" fill="#3D9AE2"/>
<path d="M428.75 241.312L310.844 241.312L306.342 223.437L257.25 26.8125L300.125 26.8125L428.75 241.312Z" fill="#3D9AE2"/>
<path d="M148.991 326.04L136.45 341.234L83.2847 330.151L75.2456 328.453L83.2847 312.276L148.991 325.951V326.04Z" fill="#1E81CE"/>
<path d="M418.031 348.562H306.342L310.844 330.688H428.75L418.031 348.562Z" fill="#1E81CE"/>
<path d="M310.844 241.312L306.342 223.437L418.031 223.438L428.75 241.312L310.844 241.312Z" fill="#1E81CE"/>
<path d="M83.2847 259.724L75.2456 243.547L83.2847 241.849L136.342 230.766H136.45L148.991 245.96V246.049L83.2847 259.724Z" fill="#1E81CE"/>
<path d="M581.074 274.381L595.963 261.538C604.121 267.959 609.343 276.548 610.733 285.83C609.566 295.318 604.274 304.121 595.856 310.578L581.235 297.511C585.195 294.465 588.006 290.525 589.328 286.17C588.054 281.64 585.179 277.534 581.074 274.381Z" fill="#78B9EB"/>
<path d="M171.5 294.938V277.062L13.2913 277.062V294.938H171.5Z" fill="#1E81CE"/>
</g>
<defs>
<clipPath id="clip0_7_49">
<rect width="572" height="686" fill="white" transform="translate(686) rotate(90)"/>
</clipPath>
</defs>
</svg>
