<svg width="190" height="215" viewBox="0 0 190 215" fill="none" xmlns="http://www.w3.org/2000/svg">
<path d="M86.2719 188.898L80.8984 191.417L59.375 201.563L56.4062 188.125L76.6531 172.269V172.235L81.7 168.305H81.7297L86.2719 188.898Z" fill="#3D9AE2"/>
<path d="M133.594 188.125L130.625 201.563L109.101 191.417L103.728 188.898L108.27 168.305H108.3L113.347 172.235L133.594 188.125Z" fill="#3D9AE2"/>
<path d="M109.844 26.875V157.118C109.846 159.859 109.547 162.59 108.953 165.248L108.27 168.305L103.728 188.898L100.759 202.369C100.438 203.822 99.6963 205.111 98.6528 206.033C97.6092 206.954 96.3235 207.454 95 207.454C93.6765 207.454 92.3908 206.954 91.3473 206.033C90.304 205.111 89.5624 203.822 89.2406 202.369L86.2719 188.898L81.7297 168.305L81.0469 165.248C80.4534 162.59 80.1542 159.859 80.1563 157.118V26.875C80.1563 22.4202 81.7202 18.1478 84.504 14.9978C87.2878 11.8478 91.0632 10.0781 95 10.0781C98.9369 10.0781 102.713 11.8478 105.496 14.9978C108.28 18.1478 109.844 22.4202 109.844 26.875Z" fill="#E0E0E2"/>
<path d="M181.094 120.938V134.375L115.781 118.989L109.844 117.578V80.625L181.094 120.938Z" fill="#3D9AE2"/>
<path d="M80.1562 80.625V117.578L74.2188 118.989L8.90625 134.375V120.938L80.1562 80.625Z" fill="#3D9AE2"/>
<path d="M108.3 168.305L113.347 172.235L109.666 188.898L109.101 191.417L103.728 188.898L108.27 168.305H108.3Z" fill="#1E81CE"/>
<path d="M115.781 83.9844V118.989L109.844 117.578V80.625L115.781 83.9844Z" fill="#1E81CE"/>
<path d="M80.1562 117.578L74.2188 118.989V83.9844L80.1562 80.625V117.578Z" fill="#1E81CE"/>
<path d="M86.2718 188.898L80.8984 191.417L80.3343 188.898L76.6531 172.269V172.235L81.7 168.305H81.7296L86.2718 188.898Z" fill="#1E81CE"/>
<path d="M91.1406 32.8848L86.8745 28.2187C89.0073 25.6618 91.8602 24.025 94.9436 23.5894C98.0952 23.9552 101.019 25.6139 103.164 28.2522L98.8237 32.8344C97.8117 31.5935 96.5031 30.7123 95.0564 30.2981C93.5518 30.6973 92.1877 31.5985 91.1406 32.8848Z" fill="#78B9EB"/>
<path d="M97.9688 161.25H92.0312V210.834H97.9688V161.25Z" fill="#1E81CE"/>
</svg>
