<svg width="75" height="76" viewBox="0 0 75 76" fill="none" xmlns="http://www.w3.org/2000/svg">
<path d="M37.4854 28.8512C32.5152 28.8512 28.4717 32.9487 28.4717 37.9851C28.4717 43.038 32.5152 47.1486 37.4854 47.1486C42.4718 47.1486 46.5284 43.038 46.5284 37.9851C46.5285 32.9487 42.4718 28.8512 37.4854 28.8512Z" fill="white"/>
<path d="M37.4723 19.9449C27.6629 19.9449 19.6826 28.0318 19.6826 37.9718C19.6826 47.9429 27.6629 56.0549 37.4723 56.0549C47.3122 56.0549 55.3174 47.9429 55.3174 37.9718C55.3174 28.0318 47.3121 19.9449 37.4723 19.9449ZM37.4853 48.6332C31.7074 48.6332 27.0067 43.8564 27.0067 37.9853C27.0067 32.1303 31.7074 27.367 37.4853 27.367C43.2793 27.367 47.9931 32.1303 47.9931 37.9853C47.9932 43.8564 43.2793 48.6332 37.4853 48.6332Z" fill="white"/>
<path d="M61.9449 45.6773C62.0347 45.3586 62.3221 45.125 62.6492 45.125H66.7969V30.7266H62.6492C62.3221 30.7266 62.0347 30.5389 61.9447 30.2202C61.5671 28.8806 60.9861 27.4874 60.169 25.8952C60.0215 25.6078 60.0749 25.2569 60.3007 25.0279L63.2748 22.0137L53.2211 11.878L50.2978 14.8386C50.0748 15.0645 49.7307 15.1203 49.4487 14.9776C48.0472 14.2675 46.5637 13.6579 45.0533 13.166C44.7507 13.0672 44.5312 12.7818 44.5312 12.4594V8.3125H30.3223V12.4594C30.3223 12.7818 30.1484 13.0671 29.8456 13.1658C28.2911 13.6721 26.8683 14.2795 25.5545 14.9717C25.2729 15.1203 24.9291 15.0674 24.7028 14.8417L21.7271 11.8731L11.719 22.0127L14.6476 25.0242C14.8702 25.2534 14.9218 25.5937 14.7753 25.8792C14.0922 27.2102 13.4925 28.668 12.9929 30.2435C12.8955 30.5505 12.6138 30.7266 12.2956 30.7266H8.20312V45.125H12.2955C12.6136 45.125 12.8952 45.3474 12.9926 45.6542C13.478 47.1846 14.0793 48.6949 14.7801 50.1153C14.921 50.4011 14.8654 50.7462 14.6424 50.972L11.7198 53.9325L21.7204 64.1194L24.691 61.1052C24.917 60.8763 25.2555 60.822 25.5388 60.9716C27.1103 61.7996 28.501 62.3881 29.8229 62.7708C30.1373 62.8618 30.3226 63.153 30.3226 63.4845V67.6875H44.5315V63.4845C44.5315 63.153 44.7621 62.8618 45.0766 62.7707C46.374 62.3951 47.7343 61.8385 49.4561 60.966C49.7399 60.8221 50.0832 60.8797 50.3057 61.109L53.226 64.1157L63.273 53.9337L60.3056 50.9727C60.0793 50.7471 60.0221 50.3959 60.1642 50.1082C61.0251 48.3632 61.5743 46.992 61.9449 45.6773ZM51.1055 51.7869C47.4447 55.4963 42.6029 57.5394 37.4723 57.5394C26.8553 57.5394 18.2178 48.7614 18.2178 37.9719C18.2178 27.2133 26.8554 18.4607 37.4723 18.4607C48.1198 18.4607 56.7823 27.2135 56.7823 37.9719C56.7823 43.171 54.7661 48.0773 51.1055 51.7869Z" fill="white"/>
</svg>
