<svg width="80" height="65" viewBox="0 0 80 65" fill="none" xmlns="http://www.w3.org/2000/svg">
<g clip-path="url(#clip0_9_186)">
<path fill-rule="evenodd" clip-rule="evenodd" d="M6.29085 65H73.6727C76.4727 65 78.2181 62.0028 76.8363 59.5833L43.1272 1.80557C41.709 -0.613879 38.2181 -0.613879 36.8363 1.80557L3.12721 59.5833C1.74539 62.0028 3.49085 65 6.29085 65ZM43.6363 54.1667H36.3636V46.9445H43.6363V54.1667ZM39.9999 39.7222C37.9999 39.7222 36.3636 38.0972 36.3636 36.1111V28.8889C36.3636 26.9028 37.9999 25.2778 39.9999 25.2778C41.9999 25.2778 43.6363 26.9028 43.6363 28.8889V36.1111C43.6363 38.0972 41.9999 39.7222 39.9999 39.7222Z" fill="white"/>
</g>
<defs>
<clipPath id="clip0_9_186">
<rect width="80" height="65" fill="white"/>
</clipPath>
</defs>
</svg>
